<?xml version="1.0" standalone="no"?>
<!DOCTYPE svg PUBLIC "-//W3C//DTD SVG 20010904//EN"
 "http://www.w3.org/TR/2001/REC-SVG-20010904/DTD/svg10.dtd">
<svg version="1.0" xmlns="http://www.w3.org/2000/svg"
 width="583.000000pt" height="428.000000pt" viewBox="0 0 583.000000 428.000000"
 preserveAspectRatio="xMidYMid meet">

<g transform="translate(0.000000,428.000000) scale(0.100000,-0.100000)"
fill="#000000" stroke="none">
<path d="M2253 3085 c-56 -24 -81 -122 -47 -188 26 -50 105 -144 194 -232 141
-138 201 -227 202 -299 2 -121 -181 -288 -363 -331 -74 -17 -184 -19 -248 -4
-102 23 -230 112 -282 195 -37 60 -32 29 8 -58 62 -131 107 -193 242 -333 137
-140 170 -188 196 -280 20 -66 22 -233 6 -340 -5 -33 -8 -61 -7 -61 0 -1 51
-5 113 -8 l111 -6 -5 133 c-8 191 16 276 107 380 41 46 191 152 278 196 23 12
42 23 42 26 0 2 -16 39 -35 83 -18 43 -39 100 -45 128 -12 52 -6 129 12 140 5
3 37 -8 70 -25 l61 -31 34 21 c40 25 124 49 173 49 32 0 37 4 57 50 12 28 26
50 32 50 33 0 148 -215 157 -297 12 -96 -38 -177 -137 -223 -41 -19 -54 -32
-74 -74 -51 -104 -52 -205 -4 -334 26 -71 25 -82 -9 -82 -49 0 -145 -30 -179
-56 -27 -21 -83 -107 -83 -129 0 -3 144 -5 319 -5 317 1 319 1 368 25 82 41
148 112 227 241 27 45 45 63 64 67 110 23 235 132 294 258 20 42 42 104 49
138 16 82 7 197 -20 248 -19 38 -73 93 -91 93 -4 0 -10 -66 -12 -147 -4 -127
-8 -155 -27 -195 -37 -77 -95 -122 -177 -135 -33 -5 -34 -5 -34 28 -1 48 -39
155 -80 223 -118 195 -376 374 -835 579 -348 156 -474 232 -498 300 -8 23 -7
22 53 -18 66 -45 149 -69 207 -61 109 15 172 85 150 168 -12 44 -70 67 -197
78 -60 6 -144 21 -187 34 -111 34 -117 35 -150 21z"/>
<path d="M1511 2922 c-90 -61 -202 -186 -251 -282 -33 -64 -33 -150 -1 -207
46 -81 136 -120 203 -89 46 22 66 61 89 167 10 49 34 140 54 202 40 131 43
174 14 211 -26 33 -56 33 -108 -2z"/>
<path d="M3028 2688 c-15 -46 -30 -91 -33 -100 -5 -14 -2 -18 14 -18 14 0 23
8 27 25 5 21 10 24 33 18 66 -17 111 10 111 67 0 44 -26 70 -72 70 -15 0 -30
5 -33 10 -13 21 -22 7 -47 -72z m108 7 c8 -21 -14 -45 -42 -45 -31 0 -36 12
-18 38 17 25 52 29 60 7z"/>
<path d="M2126 2705 c-9 -9 -16 -20 -16 -25 0 -17 33 -41 53 -38 11 2 25 11
31 21 24 38 -35 75 -68 42z"/>
<path d="M3194 2605 c-32 -49 -12 -105 38 -105 22 0 23 8 2 31 -14 16 -13 17
16 16 44 -3 59 22 37 57 -24 35 -70 36 -93 1z m73 -22 c3 -7 -3 -9 -16 -6 -12
3 -21 10 -21 15 0 13 32 6 37 -9z"/>
<path d="M1862 2608 c-25 -25 -7 -68 28 -68 9 0 25 9 34 19 34 38 -26 85 -62
49z"/>
<path d="M3358 2586 c-18 -16 -29 -38 -33 -70 -8 -51 4 -76 36 -76 23 0 25 19
3 34 -21 16 -8 49 16 41 24 -8 35 12 18 32 -7 9 -11 26 -10 39 4 29 4 29 -30
0z"/>
<path d="M3479 2535 c-89 -48 -72 -177 27 -204 68 -19 91 18 24 38 -68 20 -89
73 -45 116 31 32 80 33 112 3 22 -21 23 -21 23 -1 0 52 -82 80 -141 48z"/>
<path d="M2191 2403 c-58 -30 -106 -81 -116 -124 -5 -21 0 -34 23 -60 28 -31
35 -34 85 -34 111 2 217 82 217 166 0 51 -27 72 -98 77 -48 3 -66 -1 -111 -25z"/>
<path d="M3610 2360 c-11 -11 -20 -26 -20 -33 0 -20 43 -57 66 -57 30 0 64 29
64 54 0 51 -72 74 -110 36z m70 -30 c0 -13 -7 -20 -18 -20 -26 0 -34 11 -21
27 17 20 39 16 39 -7z"/>
<path d="M3147 2107 c-3 -9 0 -22 6 -32 17 -22 49 -9 45 19 -4 25 -43 34 -51
13z"/>
<path d="M2950 2055 c-17 -20 -5 -45 20 -45 11 0 23 7 26 15 6 15 -11 45 -26
45 -4 0 -13 -7 -20 -15z"/>
<path d="M3107 2003 c-16 -15 -6 -34 15 -31 29 4 38 38 10 38 -10 0 -22 -3
-25 -7z"/>
<path d="M1837 1747 c4 -34 8 -185 8 -334 l0 -273 92 0 92 0 5 53 c3 28 8 116
11 195 7 180 1 197 -125 327 l-91 94 8 -62z"/>
</g>
</svg>
